<svg xmlns="http://www.w3.org/2000/svg" xmlns:xlink="http://www.w3.org/1999/xlink" width="1024" height="429" shape-rendering="geometricPrecision" image-rendering="optimizeQuality" fill-rule="evenodd" xmlns:v="https://vecta.io/nano"><path fill="#fefdfe" d="M-.5-.5h1024v429H-.5V-.5z"/><path d="M477.5 190.5a452.67 452.67 0 0 1-42 1l-46-168a6.8 6.8 0 0 1 3-1.5l30-3.5c1.6.051 3.1.384 4.5 1l31 135 30.5-135a441.88 441.88 0 0 1 42 1l32.5 133 29-133c.388-.928 1.055-1.595 2-2a542.78 542.78 0 0 1 32.5 5l-44 168h-41L509 59.5c-11.201 43.505-21.701 87.172-31.5 131zm288-172c21.648-2.238 41.815 2.095 60.5 13-.032 2.098-.699 4.098-2 6-3.708 6.251-7.541 12.417-11.5 18.5a195.93 195.93 0 0 1-19-6c-8.292-1.405-16.625-1.739-25-1-15.695 6.852-18.028 16.852-7 30a605.55 605.55 0 0 0 42 20c23.097 14.286 30.597 34.452 22.5 60.5-7.207 15.54-19.041 25.707-35.5 30.5-23.103 6.1-45.103 3.433-66-8-3.85-2.761-7.517-5.761-11-9a340.93 340.93 0 0 1 20.5-23.5c14.957 12.991 31.79 16.491 50.5 10.5 10.542-7.545 12.708-17.045 6.5-28.5-2.537-2.872-5.37-5.372-8.5-7.5a229.63 229.63 0 0 0-27-12c-25.302-9.969-36.469-28.469-33.5-55.5 4.138-16.141 13.971-27.307 29.5-33.5 4.754-1.642 9.421-3.142 14-4.5z" fill="#fe58b1"/><path fill="#fe56b0" d="M654.5 20.5h33v171h-33v-171z"/><path fill="#fe75bf" d="M654.5 20.5c11.154-.995 22.488-1.328 34-1l-1 172v-171h-33z"/><path fill="#fe57b1" d="M964.5 19.5h34v172h-34v-73h-75c-.998 24.161-1.331 48.494-1 73h-34v-171h34a1190.26 1190.26 0 0 0 1 69h75v-70z"/><path fill="#fea2d3" d="M854.5 20.5c11.488-.995 23.155-1.328 35-1v69 1a1190.26 1190.26 0 0 1-1-69h-34z"/><path fill="#acacac" d="M229.5 87.5v1h-53v102h8c-.33-16.175.004-32.175 1-48v49h-10v-104h54z"/><path fill="#8a8b8a" d="M305.5 182.5v8h-55v-102h9v94h46z"/><path fill="#cdcdcd" d="M305.5 182.5h-46v-94h-9v102h55a784.68 784.68 0 0 1-56 1v-104h11v94c15.176-.329 30.176.004 45 1z"/><path fill="#fedeef" d="M964.5 19.5v70h-75v-1h74a1190.26 1190.26 0 0 1 1-69z"/><path fill="#c6c6c6" d="M229.5 87.5c.979 3.125 1.313 6.458 1 10h-45c14.49-.996 29.157-1.329 44-1v-8-1z"/><path fill="silver" d="M75.5 96.5a484.62 484.62 0 0 1-44 1v36c-.995-12.155-1.329-24.489-1-37h45z"/><path fill="#8c8d8c" d="M108.5 146.5c-.996 14.49-1.329 29.157-1 44h-9v-103c12.053-.391 24.053.109 36 1.5 16.391 5.267 22.558 16.433 18.5 33.5-3.608 11.941-11.441 19.441-23.5 22.5a93.75 93.75 0 0 1-21 1.5z"/><path fill="#fdfdfd" d="M126.5 97.5c11.396.062 17.062 5.729 17 17 .068 10.697-4.932 17.864-15 21.5a86.62 86.62 0 0 1-20 1.5v-40h18z"/><path fill="#bebebe" d="M126.5 97.5h-18v40c-.996-13.49-1.329-27.156-1-41 6.522-.323 12.855.01 19 1z"/><path fill="#8c8d8c" d="M75.5 96.5h-45c-.329 12.511.005 24.845 1 37h41v9h-41c-.996 13.156-1.329 26.49-1 40h45v9h-54v-104h54v9z"/><path fill="#ffdaed" d="M889.5 119.5v-1h75v73c-.998-23.828-1.331-47.828-1-72h-74z"/><path fill="#8b8c8b" d="M340.5 110.5c22.615.434 30.782 11.434 24.5 33-6.557 9.078-15.39 12.244-26.5 9.5-13.144-7.098-16.977-17.598-11.5-31.5 3.299-5.221 7.799-8.888 13.5-11z"/><path fill="#8a8b8a" d="M229.5 88.5v8c-14.843-.329-29.51.004-44 1v36h41v9h-41c-.996 15.825-1.33 31.825-1 48h-8v-102h53z"/><path fill="#bebfbe" d="M108.5 146.5v45c-3.542.313-6.875-.021-10-1h9c-.329-14.843.004-29.51 1-44z"/><path fill="#c9c9c9" d="M31.5 142.5v39c14.843-.329 29.51.004 44 1h-45c-.329-13.51.004-26.844 1-40z"/><path fill="#fed7ec" d="M477.5 190.5c-6.633 1.33-13.633 1.997-21 2-7.175 0-14.175-.334-21-1a452.67 452.67 0 0 0 42-1z"/><path fill="#ffc4e3" d="M889.5 118.5v1 73c-11.845.328-23.512-.005-35-1h34c-.331-24.506.002-48.839 1-73z"/><path fill="#8b8c8b" d="M142.5 225.5c29.13-1.709 48.63 10.957 58.5 38 4.121 19.311.121 36.645-12 52-14.148 12.49-30.648 17.323-49.5 14.5-22.269-4.268-36.102-17.435-41.5-39.5-5.227-28.715 5.273-49.215 31.5-61.5 4.419-1.352 8.752-2.519 13-3.5z"/><path fill="#9b9c9b" d="M647.5 227.5c25.828-.998 51.828-1.331 78-1v18h-29c9.152-.994 18.485-1.327 28-1v-16h-77z"/><path fill="#8b8c8b" d="M824.5 225.5c22.449-1.852 40.282 6.148 53.5 24 9.937 19.293 9.937 38.626 0 58-7.224 11.207-17.391 18.374-30.5 21.5-22.684 5.209-41.851-.624-57.5-17.5-13.952-22.077-13.952-44.077 0-66 9.258-10.707 20.758-17.373 34.5-20z"/><path d="M81.5 285.5h-40v44h-20v-103h63v18h-43v24h40v17zm140-59h20l.5 70c3.464 11.242 11.131 16.575 23 16 10.582 1.167 17.582-3.166 21-13a924.13 924.13 0 0 0 1.5-73h20c.455 26.71-.045 53.376-1.5 80-5.235 12.229-14.402 19.729-27.5 22.5-20.118 5.12-37.284.286-51.5-14.5-2.219-3.771-3.885-7.771-5-12l-.5-76z" fill="#8a8b8a"/><path fill="#a6a7a6" d="M354.5 227.5h-22v102c-.998-34.163-1.332-68.496-1-103 7.852-.325 15.518.008 23 1z"/><path fill="#8a8b8a" d="M405.5 226.5h20v103c-6.675.166-13.342 0-20-.5l-52-66.5c-.06-.543-.393-.876-1-1a1156.67 1156.67 0 0 0-1 68h-19v-102h22l49 65c.06.543.393.876 1 1 1-22.323 1.333-44.657 1-67z"/><path fill="#cecfce" d="M405.5 226.5c.333 22.343 0 44.677-1 67-.607-.124-.94-.457-1-1l2-66z"/><path d="M450.5 226.5c16.67-.167 33.337 0 50 .5 34.672 7.368 48.505 28.534 41.5 63.5-5.881 21.877-20.047 34.71-42.5 38.5-16.33.5-32.663.667-49 .5v-103zm141 0c7.587-.314 15.087.019 22.5 1a3226.78 3226.78 0 0 1 39.5 101c-6.757.328-13.423.828-20 1.5l-11-27c-13.996-.5-27.996-.667-42-.5-2.929 9.119-6.263 18.119-10 27l-3 1c-5.316-.942-10.65-1.775-16-2.5-.522-.561-.855-1.228-1-2l41-99.5z" fill="#8b8c8b"/><path fill="#8a8b8a" d="M647.5 227.5h77v16c-9.515-.327-18.848.006-28 1v85h-20v-85h-29v-17z"/><path fill="#a2a2a2" d="M759.5 329.5v-102h-19v102c-.998-34.163-1.332-68.496-1-103h21c.332 34.504-.002 68.837-1 103z"/><path fill="#898a89" d="M759.5 329.5h-19v-102h19v102z"/><path fill="#8b8c8b" d="M927.5 263.5c-.283-.789-.783-1.456-1.5-2l-.5 68h-20v-103a242.43 242.43 0 0 1 22 .5l50.5 66.5.5-67h21v103c-7.008.166-14.008 0-21-.5l-51-65.5z"/><path d="M141.5 243.5c29.48-1.353 42.647 12.647 39.5 42-4.752 21.052-17.919 29.885-39.5 26.5-16.381-5.723-24.381-17.389-24-35 .312-16.824 8.312-27.991 24-33.5zm683 0c29.477-1.356 42.644 12.644 39.5 42-4.752 21.052-17.919 29.885-39.5 26.5-13.083-4.088-20.916-12.921-23.5-26.5-3.261-20.499 4.572-34.499 23.5-42z" fill="#fdfdfd"/><path fill="#c4c4c4" d="M471.5 244.5v67h21c-7.148.992-14.481 1.325-22 1-.331-22.839.003-45.506 1-68z"/><path fill="#fdfdfd" d="M471.5 244.5a264.95 264.95 0 0 1 23 .5c14.869.884 24.369 8.384 28.5 22.5 2.347 15.429-2.153 28.262-13.5 38.5a39.34 39.34 0 0 1-17 5.5h-21v-67z"/><path fill="#fafafa" d="M601.5 248.5c5.804 11.725 10.471 24.058 14 37h-27c4.037-12.414 8.371-24.747 13-37z"/><path fill="#a5a6a5" d="M353.5 262.5l-2 67a1156.67 1156.67 0 0 1 1-68c.607.124.94.457 1 1z"/><path fill="#e3e3e3" d="M927.5 263.5l-2 66a2311.03 2311.03 0 0 1 .5-68c.717.544 1.217 1.211 1.5 2z"/><path fill="#d7d7d7" d="M81.5 285.5c-12.823.995-25.823 1.329-39 1 .329 14.51-.004 28.843-1 43v-44h40z"/><path fill="#fe9fd2" d="M902.5 366.5c9.819-.994 19.819-1.327 30-1 .284 1.915-.049 3.581-1 5v-4h-29z"/><path fill="#ff65b6" d="M21.5 365.5h5a535.78 535.78 0 0 0 8.5 31l8.5-30c1.853-1.26 3.686-1.26 5.5 0 2.698 10.132 5.698 20.132 9 30a932.59 932.59 0 0 1 8-29c1.488-2.32 3.321-2.487 5.5-.5a362.25 362.25 0 0 0-11 38.5c-1.967.239-3.8-.094-5.5-1a503.66 503.66 0 0 0-9-30c-3.549 10.146-6.382 20.479-8.5 31-2.266.359-4.099-.308-5.5-2a452.12 452.12 0 0 0-11.5-36c.363-.683.696-1.35 1-2z"/><path fill="#ff63b6" d="M89.5 365.5c17.99-.511 26.157 8.155 24.5 26-4.568 12.434-13.401 16.934-26.5 13.5-10.762-5.568-14.596-14.401-11.5-26.5 2.442-6.612 6.942-10.945 13.5-13z"/><path fill="#ff65b6" d="M126.5 403.5c-1.279 1.468-2.946 2.135-5 2 .382-13.349 1.049-26.682 2-40h7a274.7 274.7 0 0 0 12 30 569.35 569.35 0 0 0 13-29c2.195-1.269 4.361-1.269 6.5 0l1.5 39h-5a356.6 356.6 0 0 0-1.5-31 489.39 489.39 0 0 0-11.5 28 9.86 9.86 0 0 1-6-1l-11.5-27c-1.028 9.641-1.528 19.308-1.5 29z"/><path fill="#fe92cb" d="M194.5 370.5v-4h-21v39c-.996-13.156-1.329-26.49-1-40h23c.284 1.915-.049 3.581-1 5z"/><path fill="#fe59b2" d="M194.5 370.5h-16c-.985 4.134-1.318 8.468-1 13h16v4h-16v14h17v4h-21v-39h21v4z"/><path fill="#fe5eb3" d="M229.5 396.5c.06.543.393.876 1 1 .999-10.312 1.332-20.645 1-31h4v39h-5l-22.5-31c-.5 10.328-.666 20.661-.5 31h-5v-40a9.86 9.86 0 0 1 6 1l21 30z"/><path fill="#ffb0da" d="M230.5 405.5h5v-39h-4c.332 10.355-.001 20.688-1 31-.607-.124-.94-.457-1-1 .994-10.153 1.328-20.486 1-31h6v41c-2.235.295-4.235-.039-6-1z"/><path fill="#fe8cc9" d="M262.5 366.5h-4v39c-.996-13.156-1.329-26.49-1-40 1.915-.284 3.581.049 5 1z"/><path fill="#fe58b1" d="M262.5 366.5v39h-4v-39h4z"/><use xlink:href="#B" fill="#fe5eb4"/><path fill="#ffa9d6" d="M305.5 405.5v-39h-4c.332 10.751-.001 20.751-1 30v-31h6c.329 13.51-.004 26.844-1 40z"/><path fill="#ff65b6" d="M333.5 365.5c4.839-.278 9.506.388 14 2 .17 1.322-.163 2.489-1 3.5a31.29 31.29 0 0 1-8-.5c-6.065-.439-8.232 2.228-6.5 8 4.247 3.208 8.747 6.042 13.5 8.5 5.67 11.152 2.17 17.652-10.5 19.5-3.743-.288-6.91-1.788-9.5-4.5a23.65 23.65 0 0 0 3-3.5c4.004 3.262 8.337 3.762 13 1.5 2.408-3.043 2.574-6.209.5-9.5-3.421-1.961-6.921-3.794-10.5-5.5-7.18-7.386-6.513-13.886 2-19.5z"/><path fill="#ff64b6" d="M368.5 365.5c4.949-.541 9.616.292 14 2.5-.655 1.487-1.655 2.653-3 3.5-14.421-2.75-21.254 3.25-20.5 18 3.326 10.498 10.326 14.164 21 11 2.709 1.49 2.875 2.99.5 4.5-18.987 3.018-27.82-5.149-26.5-24.5 2.351-7.516 7.184-12.516 14.5-15z"/><path fill="#fe58b1" d="M388.5 366.5h4v39h-4v-39z"/><path fill="#fe88c7" d="M388.5 366.5c1.419-.951 3.085-1.284 5-1 .329 13.51-.004 26.844-1 40v-39h-4z"/><path fill="#ffa8d7" d="M424.5 370.5v-4h-21v39c-.996-13.156-1.329-26.49-1-40h23c.284 1.915-.049 3.581-1 5z"/><path fill="#fe59b1" d="M424.5 370.5h-16c-.985 4.134-1.318 8.468-1 13h16v4h-15c-.986 4.47-1.319 9.137-1 14h17v4h-21v-39h21v4z"/><path fill="#fe5db3" d="M459.5 395.5c.283.789.783 1.456 1.5 2 .5-10.328.666-20.661.5-31h4v39c-3.152.541-5.652-.459-7.5-3a327.08 327.08 0 0 0-20-28c-.5 10.328-.666 20.661-.5 31h-5v-40c2.292-.256 4.459.077 6.5 1l20.5 29z"/><path fill="#fed8ec" d="M461.5 365.5v1c.166 10.339 0 20.672-.5 31-.717-.544-1.217-1.211-1.5-2l2-30z"/><path fill="#fe88c7" d="M461.5 366.5v-1h5c.329 13.51-.004 26.844-1 40v-39h-4z"/><path fill="#ff69b8" d="M488.5 365.5c3.35-.165 6.683.002 10 .5 4.539.891 5.039 2.724 1.5 5.5-15.907-2.76-22.574 3.907-20 20 4.21 9.517 11.376 12.683 21.5 9.5 1.425 1.714 1.092 3.047-1 4-18.956 3.05-27.789-5.116-26.5-24.5 2.351-7.516 7.184-12.516 14.5-15z"/><path fill="#fe5fb4" d="M529.5 387.5h-16v14h17v4h-22v-40h22v5h-17v13h16v4z"/><path fill="#ff64b6" d="M561.5 365.5a7.11 7.11 0 0 1 5 1l15 38c-1.853 1.26-3.686 1.26-5.5 0-1.309-3.599-2.809-7.099-4.5-10.5a64.22 64.22 0 0 0-16 0 78.28 78.28 0 0 0-4 11.5h-5c4.603-13.477 9.603-26.81 15-40z"/><path fill="#ffc8e5" d="M593.5 366.5h-6v39c-.996-13.156-1.329-26.49-1-40 2.559-.302 4.893.032 7 1z"/><path fill="#fe5bb2" d="M593.5 366.5l21 30c.06.543.393.876 1 1 .999-10.312 1.332-20.645 1-31h4v39a9.86 9.86 0 0 1-6-1l-21-30c-.06-.543-.393-.876-1-1-.999 10.646-1.332 21.313-1 32h-4v-39h6z"/><path fill="#ffabd7" d="M620.5 405.5v-39h-4c.332 10.355-.001 20.688-1 31-.607-.124-.94-.457-1-1 .994-10.153 1.328-20.486 1-31h6c.329 13.51-.004 26.844-1 40z"/><path fill="#fe86c6" d="M646.5 366.5h-15v39c-.996-13.156-1.329-26.49-1-40 5.526-.321 10.86.012 16 1z"/><path fill="#fe5eb3" d="M646.5 366.5c8.025-.144 13.525 3.522 16.5 11 3.225 12.708-.942 21.874-12.5 27.5a180.87 180.87 0 0 1-19 .5v-39h15z"/><path fill="#fe5bb2" d="M683.5 366.5h4c-.321 5.526.012 10.86 1 16 6.813.991 13.813 1.325 21 1v-17h4v39h-4v-18h-21v18h-5v-39z"/><path fill="#ff8ac8" d="M683.5 366.5c1.419-.951 3.085-1.284 5-1v17c-.988-5.14-1.321-10.474-1-16h-4z"/><path fill="#fea6d5" d="M713.5 405.5v-39h-4v17c-7.187.325-14.187-.009-21-1h20v-17h6c.329 13.51-.004 26.844-1 40z"/><path fill="#ff60b4" d="M747.5 394.5c.994-9.152 1.327-18.485 1-28h4v29c-.632 4.805-3.299 7.972-8 9.5-9.762 3.418-16.929.584-21.5-8.5-.5-10.328-.666-20.661-.5-31h5c-.453 10.77.047 21.437 1.5 32 6 5.333 12 5.333 18 0 .483-.948.649-1.948.5-3z"/><path fill="#ff65b6" d="M797.5 380.5a9.86 9.86 0 0 0-1-6c-.798.457-1.131 1.124-1 2l-10.5 25c-2.041.923-4.208 1.256-6.5 1-2.998-9.492-6.498-18.825-10.5-28a604.49 604.49 0 0 0-1.5 20c-.982 3.462-1.315 7.129-1 11h-4v-7a618.44 618.44 0 0 1 2-33c2.292-.256 4.459.077 6.5 1l12 30c4.528-9.918 8.861-19.918 13-30 2.041-.923 4.208-1.256 6.5-1l2 40h-5a296.6 296.6 0 0 1-1-25z"/><path fill="#ff63b5" d="M824.5 365.5c1.644-.214 3.144.12 4.5 1a918.37 918.37 0 0 1 14.5 39 7.11 7.11 0 0 1-5-1 91.69 91.69 0 0 1-4-10 36.63 36.63 0 0 0-17 0l-4 10a7.11 7.11 0 0 1-5 1c4.776-13.552 10.109-26.886 16-40z"/><use xlink:href="#B" x="577" fill="#fe5eb4"/><path fill="#ffa8d6" d="M882.5 405.5v-39h-4c.332 10.751-.001 20.751-1 30v-31h6c.329 13.51-.004 26.844-1 40z"/><path fill="#ffabd7" d="M897.5 405.5v-39h-4v39c-.996-13.156-1.329-26.49-1-40h6c.329 13.51-.004 26.844-1 40z"/><path fill="#fe57b1" d="M897.5 405.5h-4v-39h4v39z"/><path fill="#ff63b5" d="M902.5 366.5h29v4h-12v35h-5v-35h-12v-4z"/><path fill="#fe90cb" d="M941.5 366.5h-4v39c-.996-13.156-1.329-26.49-1-40 1.915-.284 3.581.049 5 1z"/><path fill="#fe56b0" d="M941.5 366.5v39h-4v-39h4z"/><path fill="#fe5fb4" d="M951.5 365.5h22v5h-17v13h16v4h-16v14h17v4h-22v-40z"/><path fill="#ff64b6" d="M986.5 365.5c3.018-.165 6.018.002 9 .5 2.151.265 3.818 1.265 5 3-.23 1.732-1.234 2.566-3 2.5-4.704-1.895-8.871-1.229-12.5 2-.667 1.667-.667 3.333 0 5 3.752 3.129 7.919 5.629 12.5 7.5 4.73 5.035 5.23 10.535 1.5 16.5-6.933 5.32-13.766 5.154-20.5-.5a23.65 23.65 0 0 0 3-3.5c4.869 3.961 9.702 3.961 14.5 0a12.49 12.49 0 0 0 0-7c-3.374-2.909-7.207-5.076-11.5-6.5-7.128-7.379-6.462-13.879 2-19.5z"/><path fill="#fefcfd" d="M88.5 370.5c19.03-.281 24.863 8.386 17.5 26-5.374 5.124-11.54 6.291-18.5 3.5-7.491-6.994-8.991-15.16-4.5-24.5 1.812-1.8 3.645-3.467 5.5-5z"/><path fill="#ffdcee" d="M636.5 370.5v30h9c-3.125.979-6.458 1.313-10 1-.328-10.514.006-20.847 1-31z"/><path fill="#fefdfe" d="M636.5 370.5c18.091-2.084 24.925 5.583 20.5 23-2.494 4.498-6.327 6.832-11.5 7h-9v-30z"/><path fill="#fff5fa" d="M569.5 388.5c-3.871.315-7.538-.018-11-1a51.28 51.28 0 0 1 5.5-14c1.939 4.985 3.772 9.985 5.5 15z"/><path fill="#fe89c7" d="M593.5 374.5l-2 31c-.332-10.687.001-21.354 1-32 .607.124.94.457 1 1z"/><path fill="#ffa7d5" d="M752.5 395.5v-29h-4c.327 9.515-.006 18.848-1 28v-29h6c.327 10.181-.006 20.181-1 30z"/><path fill="#fff4f9" d="M831.5 387.5c-3.667 1.333-7.333 1.333-11 0 1.533-4.761 3.366-9.428 5.5-14 2.134 4.572 3.967 9.239 5.5 14z"/><path fill="#ffc1e2" d="M797.5 380.5l-2-4c-.131-.876.202-1.543 1-2a9.86 9.86 0 0 1 1 6z"/><path fill="#fec6e4" d="M178.5 370.5v12c5.195-.321 10.195.013 15 1h-16c-.318-4.532.015-8.866 1-13z"/><path fill="#febcdf" d="M408.5 370.5v12c5.195-.321 10.195.013 15 1h-16c-.318-4.532.015-8.866 1-13z"/><path fill="#ffe5f2" d="M529.5 387.5c-4.805.987-9.805 1.321-15 1v12c5.526-.321 10.86.012 16 1h-17v-14h16z"/><path fill="#feb0da" d="M558.5 387.5c3.462.982 7.129 1.315 11 1-3.851 1.309-7.851 1.309-12 0 .124-.607.457-.94 1-1z"/><path fill="#ffaad7" d="M820.5 387.5c3.667 1.333 7.333 1.333 11 0 .543.06.876.393 1 1-4.333 1.333-8.667 1.333-13 0 .124-.607.457-.94 1-1z"/><path fill="#fedaed" d="M193.5 387.5c-4.805.987-9.805 1.321-15 1v12c5.526-.321 10.86.012 16 1h-17v-14h16z"/><path fill="#ffcce7" d="M408.5 387.5v13h17v6c-7.519.325-14.852-.008-22-1h21v-4h-17c-.319-4.863.014-9.53 1-14z"/><path fill="#ffafd9" d="M126.5 403.5v3c-1.915.284-3.581-.049-5-1 2.054.135 3.721-.532 5-2z"/><path fill="#ffb5dc" d="M766.5 394.5v12h-6c-.306-2.885.027-5.552 1-8v7h4c-.315-3.871.018-7.538 1-11z"/><defs ><path id="B" d="M300.5 396.5c.999-9.249 1.332-19.249 1-30h4v39a9.86 9.86 0 0 1-6-1 951.42 951.42 0 0 0-21.5-30c-.5 10.328-.666 20.661-.5 31h-5v-40a9.86 9.86 0 0 1 6 1c7.003 10.323 14.337 20.323 22 30z"/></defs></svg>