<svg xmlns="http://www.w3.org/2000/svg" width="1280" height="373" shape-rendering="geometricPrecision" image-rendering="optimizeQuality" fill-rule="evenodd" fill="#fe0000" xmlns:v="https://vecta.io/nano"><path d="M-.5-.5h270v69h-189v83h173v69h-173v83h189v69H-.5v-153h80v-67h-80V-.5z" opacity=".994"/><path d="M337.5-.5h190c80.129 12.23 114.629 58.563 103.5 139-10.872 40.538-36.706 66.038-77.5 76.5-8.542 2.308-17.209 3.975-26 5l-109 .5v152h-81V-.5zm81 69l69 .5c17.985-.67 34.985 2.996 51 11 14.488 11.811 18.654 26.644 12.5 44.5-5.389 10.712-13.889 17.879-25.5 21.5-13.113 3.346-26.446 5.013-40 5l-67 .5v-83z" opacity=".991"/><path d="M684.5-.5h270v69h-189v83h173v69h-173v152h-81v-153h80v-67h-80V-.5z" opacity=".992"/><path d="M1012.5-.5h81v304h186v69h-267V-.5z" opacity=".996"/></svg>