<svg xmlns="http://www.w3.org/2000/svg" xmlns:xlink="http://www.w3.org/1999/xlink" width="261" height="308" shape-rendering="geometricPrecision" image-rendering="optimizeQuality" fill-rule="evenodd" xmlns:v="https://vecta.io/nano"><path fill="#130f0a" d="M258.5 1.5h-1-255v99c-.998-33.162-1.332-66.496-1-100l257 1z" opacity=".2"/><path fill="#7c191f" d="M257.5 1.5v1H3.5v110c-.983-3.798-1.317-7.798-1-12v-99h255z" opacity=".788"/><path fill="#a71d28" d="M257.5 2.5l-.5 107c-3.135 39.237-14.968 75.57-35.5 109-11.47 19.032-25.47 36.199-42 51.5-3.561 3.073-7.228 5.906-11 8.5a212.39 212.39 0 0 0-22 17c-4.112 2.228-8.112 4.728-12 7.5-1.845 1.128-3.845 1.628-6 1.5-2.985-.826-5.651-2.159-8-4-.473-1.406-1.473-2.073-3-2-.992.172-1.658-.162-2-1-.473-1.406-1.473-2.073-3-2-.473-1.406-1.473-2.073-3-2-2.698-.345-4.698-1.678-6-4-.473-1.406-1.473-2.073-3-2-1.904-.238-3.238-1.238-4-3-1.085-2.087-2.751-3.42-5-4-1.085-2.087-2.751-3.42-5-4a3 3 0 0 1-2-2c-1.739-2.743-4.073-4.743-7-6a70.87 70.87 0 0 1-10-10c-.919-2.589-2.586-4.589-5-6a6.54 6.54 0 0 1-3-3c-.636-2.295-1.969-3.961-4-5 .131-.739-.036-1.406-.5-2-.69-1.238-1.19-1.238-1.5 0-.838-.342-1.172-1.008-1-2-.238-1.904-1.238-3.238-3-4 .073-1.527-.594-2.527-2-3s-2.073-1.473-2-3c-1.259-3.525-3.259-6.525-6-9 .073-1.527-.594-2.527-2-3-.838-.342-1.172-1.008-1-2-.579-2.831-1.912-5.164-4-7-2.841-4.349-5.174-9.016-7-14 .098-2.053-.569-3.72-2-5-.838-.342-1.172-1.008-1-2 .098-2.053-.569-3.72-2-5-.904-.709-1.237-1.709-1-3 .098-2.053-.569-3.72-2-5-1.572-2.715-2.572-5.715-3-9 .091-2.652-.576-4.985-2-7-.732-5.594-2.065-10.927-4-16-1.255-10.199-2.922-20.199-5-30v-1-110h254z"/><path fill="#23201c" d="M34.5 33.5c10.208 1.636 20.541 2.469 31 2.5.93.991 2.096 1.491 3.5 1.5 6.638-2.334 13.472-2.668 20.5-1 4.31-.453 8.477-1.453 12.5-3 1.607.269 2.774 1.103 3.5 2.5 3.589.207 7.089.707 10.5 1.5 1.379 4.536 1.879 9.203 1.5 14 10.355-.901 12.689 2.932 7 11.5-2.595.226-5.095.726-7.5 1.5a225.14 225.14 0 0 0 0 30 268.05 268.05 0 0 0 9.5 4c2.669 8.171-.331 11.671-9 10.5l-1.5 1.5-1 13-1.5 1.5-40 1c-3.929 3.256-7.929 3.256-12 0-13.029-.201-26.029-.868-39-2l-1.5-1.5-1-13a81.5 81.5 0 0 1-8.5-2.5c-2.843-3.619-2.509-6.952 1-10 2.926-.218 5.759-.718 8.5-1.5.667-10.667.667-21.333 0-32-3.076-.788-6.242-1.288-9.5-1.5-2.843-3.619-2.509-6.952 1-10a46.65 46.65 0 0 0 8-1.5 86.7 86.7 0 0 0 1.5-13l1.5-1.5 10-1c.556-.383.889-.883 1-1.5z"/><path fill="#211f1b" d="M157.5 33.5a199.29 199.29 0 0 0 31 2.5c.93.991 2.096 1.491 3.5 1.5a389.98 389.98 0 0 1 24.5-1.5 88.67 88.67 0 0 0 8.5-2.5c1.607.269 2.774 1.103 3.5 2.5 3.589.207 7.089.707 10.5 1.5l1 13c2.74.782 5.574 1.282 8.5 1.5 2.866 3.943 2.532 7.61-1 11-2.595.226-5.095.726-7.5 1.5a225.14 225.14 0 0 0 0 30 268.05 268.05 0 0 0 9.5 4c2.669 8.171-.331 11.671-9 10.5l-1.5 1.5-1 13-1.5 1.5-40 1c-3.929 3.256-7.929 3.256-12 0a545.16 545.16 0 0 1-39-2l-1.5-1.5-1-13c-2.859-.673-5.692-1.507-8.5-2.5-2.843-3.619-2.51-6.952 1-10 2.926-.218 5.76-.718 8.5-1.5a256.12 256.12 0 0 0 0-32c-3.076-.788-6.242-1.288-9.5-1.5-2.843-3.619-2.51-6.952 1-10a46.65 46.65 0 0 0 8-1.5l2-13.5c3.711-.175 7.378-.675 11-1.5.363-.684.696-1.35 1-2z"/><path fill="#f7f7f7" d="M37.5 36.5c8.865 1.639 17.865 2.472 27 2.5l1.5 1.5c.667 19.667.667 39.333 0 59-.176 3.382-.676 6.715-1.5 10-8.619-.805-17.285-1.305-26-1.5l-1.5-1.5c-.822-23.406-.656-46.739.5-70z"/><path fill="#f9f9f8" d="M97.5 36.5h3a1484.97 1484.97 0 0 1-1.5 71c-7.202 2.219-14.535 2.553-22 1-2.637.157-5.137.823-7.5 2l-1-4 1.5-66c.75-.626 1.584-1.126 2.5-1.5l24-1c.556-.383.889-.883 1-1.5z"/><path fill="#f7f7f6" d="M161.5 36.5c8.522 1.671 17.189 2.504 26 2.5l1.5 1.5c.854 23.032.354 46.032-1.5 69a368.02 368.02 0 0 0-26-1.5l-1.5-1.5-.5-34.5c.021-12.058.687-23.891 2-35.5z"/><path fill="#f7f7f7" d="M219.5 37.5h4l-.5 69c-1.171 1.393-2.671 2.227-4.5 2.5a368.02 368.02 0 0 0-26 1.5l-1-4.5 2-65.5a4.45 4.45 0 0 0 2-1.5 283.89 283.89 0 0 0 24-1.5z"/><path fill="#eee" d="M26.5 38.5h3a8.8 8.8 0 0 1-1.5 5c-.667 24-.667 48 0 72 10.582 1.799 21.416 2.633 32.5 2.5.837 1.011 1.17 2.178 1 3.5-12.005.167-24.005 0-36-.5l-1.5-1.5-1-12c-2.507-1.655-5.341-2.489-8.5-2.5-2.629-2.789-1.963-4.789 2-6 2.264-.236 4.431-.736 6.5-1.5.667-12 .667-24 0-36-3.243-1.763-6.743-2.429-10.5-2-.213-1.644.12-3.144 1-4.5 3.139-1.017 6.305-1.851 9.5-2.5-.204-5.198.963-9.865 3.5-14z"/><path fill="#eeeeed" d="M109.5 39.5c1.644-.214 3.144.12 4.5 1l1 12a26.69 26.69 0 0 0 6.5 1.5c3.459.916 4.459 2.916 3 6l-9 1-1.5 1.5c-.667 11.333-.667 22.667 0 34 2.574 2.527 5.74 3.694 9.5 3.5 2.503 1.784 2.503 3.451 0 5-3.258.212-6.424.712-9.5 1.5l-1 13-1.5 1.5c-12.347.833-24.68.666-37-.5.209-.586.543-1.086 1-1.5 10.995-.5 21.995-.667 33-.5a1881.59 1881.59 0 0 0 1-79z"/><path fill="#efefef" d="M149.5 38.5h3c.009 1.808-.491 3.475-1.5 5a1295.6 1295.6 0 0 0 0 72c10.582 1.799 21.416 2.633 32.5 2.5.837 1.011 1.17 2.178 1 3.5-12.005.167-24.005 0-36-.5l-1.5-1.5-1-12c-2.507-1.655-5.341-2.489-8.5-2.5-2.667-1.667-2.667-3.333 0-5 3.159-.011 5.993-.845 8.5-2.5a324.09 324.09 0 0 0 0-36c-3.243-1.763-6.743-2.429-10.5-2-.214-1.644.12-3.144 1-4.5 3.139-1.017 6.305-1.851 9.5-2.5-.204-5.198.963-9.865 3.5-14z"/><path fill="#edecec" d="M232.5 39.5c1.644-.214 3.144.12 4.5 1l1 12a26.69 26.69 0 0 0 6.5 1.5c3.459.916 4.459 2.916 3 6-3.258.212-6.424.712-9.5 1.5-.728 11.669-1.061 23.336-1 35 2.574 2.527 5.74 3.694 9.5 3.5 2.503 1.784 2.503 3.451 0 5-3.258.212-6.424.712-9.5 1.5l-1 13-1.5 1.5c-12.347.833-24.68.666-37-.5.209-.586.543-1.086 1-1.5 11.416.134 22.583-.699 33.5-2.5l.5-77z"/><path fill="#eeeeed" d="M103.5 39.5c2.252.416 3.752 1.749 4.5 4a643.38 643.38 0 0 1-1.5 68c-1.697-.864-2.863-2.197-3.5-4-.822-22.739-.655-45.406.5-68z"/><path fill="#eee" d="M226.5 39.5c2.688.524 4.188 2.191 4.5 5 .592 22.355.092 44.688-1.5 67-1.697-.864-2.863-2.197-3.5-4-.822-22.739-.655-45.406.5-68z"/><path d="M32.5 40.5c1.332 10.813 1.999 21.979 2 33.5l-.5 33.5c-.637 1.803-1.803 3.136-3.5 4a748.75 748.75 0 0 1-.5-67 16.55 16.55 0 0 1 2.5-4zm123 0c1.332 10.813 1.999 21.979 2 33.5l-.5 33.5c-.637 1.803-1.803 3.136-3.5 4-1.166-22.326-1.333-44.659-.5-67a16.58 16.58 0 0 1 2.5-4z" fill="#ececeb"/><path fill="#1d1c19" d="M39.5 59.5h10c.203 1.89-.463 3.39-2 4.5 1.497 5.991 3.497 11.824 6 17.5 4.144-6.387 5.477-13.387 4-21 2.147-1.335 4.147-1.169 6 .5a481.49 481.49 0 0 0-9 29.5c-1.322.17-2.489-.163-3.5-1-2.976-10.443-6.809-20.443-11.5-30z"/><path fill="#1c1c18" d="M73.5 59.5c5.475-.581 10.642.086 15.5 2 .749 1.135.583 2.135-.5 3-2.308-2.507-4.975-3.174-8-2-.917 3.258-1.251 6.591-1 10a41.58 41.58 0 0 0 8-1v5c-2.1.023-3.933-.644-5.5-2-.772.145-1.439.478-2 1-.667 4.333-.667 8.667 0 13 4.73 2.065 8.23.731 10.5-4 1.141 1.921 1.308 3.921.5 6-5.667 1.333-11.333 1.333-17 0 1.055-5.15 1.555-10.484 1.5-16-.174-5.131-.841-10.131-2-15z"/><path fill="#1b1a17" d="M165.5 59.5a98.43 98.43 0 0 1 14 .5c7.625 4.607 7.958 9.774 1 15.5l-1 3c1.503 4.192 3.503 8.192 6 12-.865 1.083-1.865 1.249-3 .5a76.11 76.11 0 0 0-9-11.5c-1.397 3.824-1.064 7.491 1 11-2.586.98-5.253 1.313-8 1 2.016-9.188 2.516-18.522 1.5-28-1.481-.971-2.315-2.304-2.5-4z"/><path fill="#1b1b17" d="M201.5 58.5c2.027-.162 4.027.005 6 .5.928.388 1.595 1.055 2 2l-2.5 3.5c-1.048 9.54-.548 18.873 1.5 28h-9c.108-2.283.941-4.283 2.5-6 .667-7.667.667-15.333 0-23-1.519-1.639-1.686-3.306-.5-5z"/><path fill="#ebeaea" d="M173.5 61.5c7.519 1.372 9.352 5.372 5.5 12-1.733 2.102-3.733 2.435-6 1-.768-4.42-.602-8.753.5-13z"/><path fill="#e6e6e5" d="M34.5 110.5c9.313.688 18.647 1.188 28 1.5 2.828 2.851 2.162 4.351-2 4.5-9.307-.919-18.64-1.252-28-1-.108-2.014.558-3.68 2-5z"/><path fill="#e2e1e1" d="M158.5 109.5a153.24 153.24 0 0 0 28 2.5c2.732 2.318 2.232 3.818-1.5 4.5-9.459-.961-18.959-1.295-28.5-1-.247-2.358.419-4.358 2-6z"/><path fill="#ededed" d="M96.5 111.5c2.357-.163 4.69.003 7 .5 1.38 1.324 1.714 2.657 1 4-10.995.5-21.995.667-33 .5-.17-1.322.163-2.489 1-3.5 8.177-.171 16.177-.671 24-1.5z"/><path fill="#ecebeb" d="M221.5 110.5c4.351-.967 6.685.7 7 5a289.88 289.88 0 0 1-34-1 7.25 7.25 0 0 1 2-2.5 308.5 308.5 0 0 0 25-1.5z"/><path fill="#eaeaea" d="M65.5 116.5c5.709-.404 7.709 2.096 6 7.5-2.181 2.078-4.181 1.911-6-.5-1.322-2.365-1.322-4.698 0-7z"/><path fill="#f6f6f6" d="M190.5 115.5c2.411-.363 3.911.637 4.5 3 1.066 6.06-.934 7.394-6 4-.833-2.671-.333-5.004 1.5-7z"/><path fill="#23140f" d="M3.5 113.5c2.078 9.801 3.745 19.801 5 30-2.727-9.694-4.394-19.694-5-30z" opacity=".354"/><path fill="#6d181c" d="M257.5 1.5h1l-.5 112c-3.364 38.265-15.53 73.265-36.5 105 20.532-33.43 32.365-69.763 35.5-109l.5-107v-1z" opacity=".922"/><path fill="#20130e" d="M8.5 143.5c1.935 5.073 3.268 10.406 4 16-2.249-4.997-3.583-10.33-4-16z" opacity=".302"/><path fill="#24211e" d="M85.5 154.5c4.316 2.325 8.982 3.658 14 4 17.74.407 35.407.407 53 0a70.98 70.98 0 0 0 18-3c4.861 1.488 9.861 2.321 15 2.5l2.5 2.5a84.9 84.9 0 0 1 .5 13 32.46 32.46 0 0 1 8 .5c3.554 2.655 3.887 5.655 1 9-3.109.696-5.942 1.862-8.5 3.5-.5 10.661-.667 21.328-.5 32 4.339-.654 8.173.346 11.5 3 .896 2.525.396 4.692-1.5 6.5-3.013 1.665-6.18 2.832-9.5 3.5l-1 12c-.5 1.833-1.667 3-3.5 3.5l-50 1c-3.74 3.243-7.407 3.243-11 0l-51-1a113.53 113.53 0 0 1-1.5-14.5l-1.5-1.5c-5.563.839-9.563-1.161-12-6 .49-1.982 1.49-3.649 3-5 3.258-.212 6.424-.712 9.5-1.5a544.99 544.99 0 0 0 .5-33c-4.084.457-7.917-.21-11.5-2-2.385-3.957-1.552-7.124 2.5-9.5 3.317-.498 6.65-.665 10-.5a84.94 84.94 0 0 1 .5-13l1.5-1.5 9-1c1.21-1.039 2.21-2.206 3-3.5z"/><path fill="#f7f7f7" d="M166.5 158.5c1.644-.214 3.144.12 4.5 1 .814 23.019.481 46.019-1 69-.75.626-1.584 1.126-2.5 1.5l-33 1a28.93 28.93 0 0 0-4 1.5c-1.166-10.317-1.332-20.651-.5-31 .414-.457.914-.791 1.5-1 2.557 3.199 3.557 6.866 3 11a16.87 16.87 0 0 0 8-1c-1.692-1.859-3.192-3.859-4.5-6-1.709-8.836-4.042-17.503-7-26a64.22 64.22 0 0 1 0-16l1.5-1.5 32-1c.916-.278 1.582-.778 2-1.5z"/><path fill="#f9f9f8" d="M87.5 158.5c1.603-.188 2.937.312 4 1.5l33 1 1.5 1.5c1.269 16.916-1.897 32.916-9.5 48 1.574 1.131 3.241 1.298 5 .5a42.36 42.36 0 0 0 1.5-8.5c1.079-1.894 2.413-2.227 4-1 .807 9.714.641 19.381-.5 29-10.317 1.166-20.651 1.332-31 .5-2.834-.045-5.334-.879-7.5-2.5l-.5-70z"/><path fill="#1e130d" d="M12.5 159.5c1.424 2.015 2.091 4.348 2 7-1.424-2.015-2.091-4.348-2-7z" opacity=".339"/><path fill="#f3f3f3" d="M75.5 161.5c5.553-.475 6.387 1.192 2.5 5-.667 24.333-.667 48.667 0 73 14.092.824 28.259 1.324 42.5 1.5.457.414.791.914 1 1.5a42.77 42.77 0 0 1-9 1.5 342.33 342.33 0 0 1-37 0c-.626-.75-1.126-1.584-1.5-2.5l-1-12c-3.076-.788-6.242-1.288-9.5-1.5-2.503-1.784-2.503-3.451 0-5 3.258-.212 6.424-.712 9.5-1.5a361.23 361.23 0 0 0 0-38c-3.411-.793-6.911-1.293-10.5-1.5-1.36-1.938-1.027-3.604 1-5 3.258-.212 6.424-.712 9.5-1.5 1.102-4.635 1.935-9.301 2.5-14z"/><path fill="#f7f7f7" d="M179.5 160.5c1.967-.239 3.801.094 5.5 1l1 13c2.93 1.566 6.097 2.4 9.5 2.5 1.333 1.333 1.333 2.667 0 4l-8 1-1.5 1.5a342.33 342.33 0 0 0 0 37c3.076.788 6.242 1.288 9.5 1.5 2.667 1.667 2.667 3.333 0 5a55.58 55.58 0 0 0-9 1.5c-1.035 5.366-2.368 10.532-4 15.5-15.667.667-31.333.667-47 0-1.333-1-1.333-2 0-3l41-1c1.431-.465 2.597-1.299 3.5-2.5a724.32 724.32 0 0 0 1-73c-1.188-1.063-1.688-2.397-1.5-4z"/><path fill="#f9f9f9" d="M174.5 161.5c1.294.79 2.461 1.79 3.5 3a817.47 817.47 0 0 1-.5 70c-1.646-1.279-2.813-2.945-3.5-5-.822-22.739-.655-45.406.5-68z"/><path fill="#f0f0f0" d="M82.5 162.5c1.332 10.98 1.999 22.313 2 34l-.5 34c-.637 1.803-1.803 3.136-3.5 4-1.208-23.006-1.042-46.006.5-69l1.5-3z"/><use xlink:href="#B" fill="#24130f" opacity=".396"/><path fill="#1a1915" d="M97.5 177.5c5.834 2.639 11.667 2.639 17.5 0 1.741 2.041 1.908 4.208.5 6.5-1.699.393-3.199-.107-4.5-1.5-.772.145-1.439.478-2 1-1.048 9.54-.548 18.873 1.5 28-3.072.317-6.072-.016-9-1l1.5-3c.5-8.66.666-17.327.5-26-2.785.433-5.119 1.766-7 4-1.233-2.842-.9-5.508 1-8z"/><path fill="#1e1e1a" d="M157.5 179.5h4c.308 2.424-.026 4.757-1 7-2.309-1.151-4.476-2.484-6.5-4-1.96.792-3.46 2.125-4.5 4a151.22 151.22 0 0 1 14.5 14c-.267 9.941-4.933 12.941-14 9-.873.235-1.707.569-2.5 1-1.82-9.391-.153-10.225 5-2.5 4.24 1.539 6.907.206 8-4-.789-1.626-1.789-3.126-3-4.5-5.808-2.138-9.475-6.138-11-12 .056-2.611 1.056-4.778 3-6.5 2.865-.183 5.531-.683 8-1.5z"/><use xlink:href="#B" x="3" y="8" fill="#21130e" opacity=".396"/><path fill="#e8e7e7" d="M127.5 187.5c3.138 2.912 4.138 6.412 3 10.5-3.702 1.393-5.702.226-6-3.5.195-2.718 1.195-5.051 3-7z"/><use xlink:href="#B" x="6" y="15" fill="#371512" opacity=".537"/><path fill="#2b1410" d="M32.5 209.5c2.088 1.836 3.421 4.169 4 7-2.088-1.836-3.421-4.169-4-7z" opacity=".396"/><path fill="#301511" d="M37.5 218.5c1.406.473 2.073 1.473 2 3-1.406-.473-2.073-1.473-2-3z" opacity=".243"/><path fill="#361513" d="M39.5 221.5c2.741 2.475 4.741 5.475 6 9-2.777-2.451-4.777-5.451-6-9z" opacity=".522"/><path fill="#fdfcfc" d="M85.5 231.5c1.755.572 3.422 1.406 5 2.5l33 1c.457.414.791.914 1 1.5-14 1.333-28 1.333-42 0 .76-1.86 1.76-3.527 3-5z"/><path fill="#e4e4e3" d="M170.5 231.5c2.216.703 4.049 2.036 5.5 4 .617.949.451 1.782-.5 2.5a441.03 441.03 0 0 1-42 0c-1.291-2.09-.624-3.424 2-4 11.353.999 22.686.666 34-1 .556-.383.889-.883 1-1.5z"/><path fill="#21120e" d="M47.5 233.5c1.406.473 2.073 1.473 2 3-1.406-.473-2.073-1.473-2-3z" opacity=".078"/><path fill="#311512" d="M49.5 236.5c1.762.762 2.762 2.096 3 4-1.762-.762-2.762-2.096-3-4z" opacity=".078"/><path fill="#ededed" d="M126.5 237.5c1.644-.214 3.144.12 4.5 1a32.46 32.46 0 0 1 .5 8c-7.073.061-8.74-2.939-5-9z"/><path fill="#21120e" d="M55.5 244.5a3 3 0 0 1-2-2c.31-1.238.81-1.238 1.5 0 .464.594.631 1.261.5 2z" opacity=".078"/><path fill="#321512" d="M55.5 244.5c2.031 1.039 3.364 2.705 4 5-2.043-1.079-3.376-2.746-4-5z" opacity=".078"/><path fill="#27140f" d="M62.5 252.5c2.414 1.411 4.081 3.411 5 6-2.414-1.411-4.081-3.411-5-6z" opacity=".039"/><path fill="#341512" d="M77.5 268.5c2.927 1.257 5.261 3.257 7 6-2.927-1.257-5.261-3.257-7-6z" opacity=".702"/><g fill="#401614"><path d="M86.5 276.5c2.249.58 3.915 1.913 5 4-2.249-.58-3.915-1.913-5-4z" opacity=".733"/><path d="M91.5 280.5c2.249.58 3.915 1.913 5 4-2.249-.58-3.915-1.913-5-4z" opacity=".604"/></g><path fill="#73181d" d="M168.5 278.5c-6.602 6.632-13.936 12.299-22 17a212.39 212.39 0 0 1 22-17z" opacity=".286"/><use xlink:href="#C" fill="#371513" opacity=".694"/><use xlink:href="#C" x="9" y="6" fill="#381513" opacity=".604"/><use xlink:href="#C" x="12" y="8" fill="#2e1610" opacity=".455"/><path fill="#6e181c" d="M146.5 295.5c-4.708 4.192-9.875 7.859-15.5 11-.995-.566-1.828-1.233-2.5-2 2.155.128 4.155-.372 6-1.5 3.888-2.772 7.888-5.272 12-7.5z" opacity=".286"/><use xlink:href="#C" x="17" y="11" fill="#2f1610" opacity=".455"/><defs ><path id="B" d="M17.5 175.5c1.431 1.28 2.098 2.947 2 5-1.431-1.28-2.098-2.947-2-5z"/><path id="C" d="M100.5 287.5c1.527-.073 2.527.594 3 2-1.527.073-2.527-.594-3-2z"/></defs></svg>