<?xml version="1.0" standalone="no"?>
<!DOCTYPE svg PUBLIC "-//W3C//DTD SVG 20010904//EN"
 "http://www.w3.org/TR/2001/REC-SVG-20010904/DTD/svg10.dtd">
<svg version="1.0" xmlns="http://www.w3.org/2000/svg"
 width="714.000000pt" height="178.000000pt" viewBox="0 0 714.000000 178.000000"
 preserveAspectRatio="xMidYMid meet">

<g transform="translate(0.000000,178.000000) scale(0.100000,-0.100000)"
fill="#000000" stroke="none">
<path d="M3560 1295 l0 -335 29 0 29 0 4 159 c3 177 8 191 78 239 46 31 124
31 171 -1 49 -33 58 -70 58 -244 l1 -153 30 0 30 0 0 173 c0 159 -2 176 -22
217 -52 101 -209 122 -315 43 l-33 -24 0 130 0 131 -30 0 -30 0 0 -335z"/>
<path d="M4160 1610 c-27 -50 36 -95 71 -51 26 31 11 65 -29 69 -23 2 -34 -2
-42 -18z"/>
<path d="M6140 1295 l0 -335 30 0 c28 0 30 2 30 40 0 22 2 40 4 40 3 0 19 -13
36 -29 75 -68 211 -68 295 1 134 111 99 353 -60 413 -70 27 -163 17 -220 -23
-25 -18 -48 -32 -50 -32 -3 0 -5 59 -5 130 l0 130 -30 0 -30 0 0 -335z m331
62 c18 -12 44 -38 57 -57 20 -30 23 -45 20 -105 -4 -83 -28 -124 -91 -156 -50
-26 -134 -23 -174 7 -108 81 -104 237 6 311 26 17 48 23 91 23 43 0 65 -6 91
-23z"/>
<path d="M1827 1593 c-4 -3 -7 -148 -7 -320 l0 -314 33 3 32 3 5 242 5 242
105 -182 c113 -194 141 -234 157 -224 6 4 65 98 130 210 l118 202 3 -248 2
-248 33 3 32 3 3 309 c1 184 -2 314 -7 319 -22 22 -57 -3 -92 -65 -99 -176
-224 -388 -229 -388 -4 0 -63 98 -132 218 -70 119 -133 223 -139 230 -14 13
-42 16 -52 5z"/>
<path d="M5095 1588 c-3 -7 -4 -150 -3 -318 l3 -305 208 -3 207 -2 0 30 0 30
-172 2 -173 3 -5 285 -5 285 -28 3 c-16 2 -29 -2 -32 -10z"/>
<path d="M1231 1534 c-11 -14 -23 -35 -26 -46 -5 -13 -12 -17 -23 -13 -72 30
-138 21 -148 -21 -7 -27 33 -104 66 -127 19 -13 19 -15 -14 -53 -18 -21 -62
-84 -98 -139 -36 -55 -107 -152 -157 -215 -96 -121 -125 -178 -144 -287 -8
-44 -8 -75 0 -110 6 -26 11 -49 10 -50 -1 0 -59 2 -129 6 -92 6 -134 13 -152
25 -51 33 -21 54 95 65 94 10 129 29 129 70 0 68 -99 106 -275 105 -125 0
-194 -20 -228 -66 -42 -57 9 -107 119 -116 59 -4 64 -3 64 15 0 17 -9 21 -56
26 -30 3 -67 13 -81 22 -23 15 -24 18 -8 35 61 68 398 55 422 -16 5 -16 -51
-34 -106 -34 -29 0 -64 -9 -91 -22 -37 -19 -46 -29 -48 -54 -2 -25 3 -37 24
-53 37 -29 80 -38 218 -46 138 -8 128 -2 297 -162 58 -56 105 -93 118 -93 33
0 38 43 14 124 -5 18 -1 18 63 12 185 -18 204 -19 204 -7 0 17 -60 50 -102 57
-21 4 -38 9 -38 13 0 3 16 16 34 28 61 39 124 210 126 340 0 57 7 63 46 47 65
-27 74 8 14 56 -47 37 -48 49 -20 162 29 113 71 194 161 315 44 58 79 114 79
124 0 12 -10 21 -26 25 -27 7 -153 -1 -190 -11 -17 -5 -23 -1 -27 18 -10 38
-46 77 -72 77 -13 0 -32 -11 -44 -26z m93 -150 c22 -21 20 -47 -4 -69 -42 -38
-106 17 -74 64 18 25 56 27 78 5z"/>
<path d="M3207 1533 c-4 -3 -7 -26 -7 -50 l0 -43 -40 0 c-38 0 -40 -2 -40 -30
0 -28 2 -30 39 -30 l39 0 3 -168 c3 -139 7 -172 22 -195 27 -42 72 -60 134
-55 65 6 90 25 74 57 -10 17 -16 19 -31 11 -36 -19 -87 -12 -109 16 -19 24
-21 40 -21 180 l0 154 70 0 70 0 0 30 0 30 -70 0 -70 0 0 50 c0 48 -1 50 -28
50 -16 0 -32 -3 -35 -7z"/>
<path d="M2728 1426 c-44 -16 -88 -43 -88 -54 0 -4 6 -15 14 -24 12 -16 16
-15 62 8 41 21 60 25 116 22 77 -4 102 -21 119 -79 20 -65 14 -69 -108 -69
-120 0 -160 -13 -197 -63 -27 -37 -26 -106 3 -146 48 -67 189 -81 270 -28 l41
27 0 -30 c0 -27 3 -30 31 -30 l30 0 -3 189 c-3 207 -6 216 -71 265 -34 25
-164 33 -219 12z m232 -287 c0 -86 -111 -150 -204 -119 -78 26 -90 111 -21
148 11 6 66 12 123 12 l102 0 0 -41z"/>
<path d="M4170 1200 l0 -240 30 0 30 0 0 240 0 240 -30 0 -30 0 0 -240z"/>
<path d="M4454 1430 c-87 -27 -123 -137 -66 -201 23 -26 44 -35 132 -55 58
-14 113 -32 122 -41 24 -22 23 -66 -3 -89 -32 -29 -169 -27 -226 3 l-41 22
-16 -24 c-17 -26 -14 -31 43 -60 44 -22 164 -31 220 -15 80 21 123 86 105 159
-12 47 -56 75 -141 91 -135 25 -176 55 -153 110 6 15 23 32 36 39 36 16 138
14 182 -4 34 -15 38 -15 49 1 19 26 16 32 -19 50 -38 20 -178 28 -224 14z"/>
<path d="M5670 1424 c-69 -22 -86 -38 -72 -69 l11 -25 47 25 c35 19 62 25 106
25 96 0 138 -35 138 -115 l0 -35 -108 0 c-92 0 -114 -3 -152 -22 -76 -39 -91
-130 -34 -197 57 -68 208 -68 281 1 l23 21 0 -37 c0 -35 2 -37 28 -34 l27 3 3
170 c2 160 1 173 -20 215 -42 82 -157 113 -278 74z m230 -288 c0 -34 -6 -50
-28 -74 -53 -56 -149 -66 -206 -21 -46 36 -32 111 24 132 8 3 59 6 113 6 l97
1 0 -44z"/>
<path d="M2830 505 c0 -14 5 -25 10 -25 6 0 10 11 10 25 0 14 -4 25 -10 25 -5
0 -10 -11 -10 -25z"/>
<path d="M1900 510 c0 -5 7 -10 15 -10 11 0 15 -11 15 -41 0 -39 0 -40 -22
-25 -57 40 -138 -7 -138 -79 0 -27 8 -44 29 -66 33 -33 58 -36 101 -14 17 9
30 11 30 5 0 -5 12 -10 28 -10 24 1 25 2 10 14 -15 11 -18 30 -18 125 l0 111
-25 0 c-14 0 -25 -4 -25 -10z m5 -105 c14 -13 25 -36 25 -50 0 -32 -41 -75
-71 -75 -60 0 -90 82 -47 127 28 30 63 29 93 -2z"/>
<path d="M6690 510 c0 -5 14 -10 30 -10 l30 0 0 -105 0 -105 -34 0 c-19 0 -38
-4 -41 -10 -4 -6 25 -10 79 -10 51 0 86 4 86 10 0 6 -16 10 -35 10 l-35 0 0
115 0 115 -40 0 c-22 0 -40 -4 -40 -10z"/>
<path d="M2550 475 c0 -17 -8 -29 -22 -35 l-23 -9 23 -7 c20 -6 22 -13 22 -70
0 -57 3 -65 25 -80 20 -13 34 -15 67 -8 23 5 43 14 45 20 3 8 -7 9 -37 1 -60
-17 -74 -4 -78 72 l-3 61 45 0 c25 0 48 5 51 10 4 6 -13 10 -44 10 -50 0 -51
1 -51 30 0 17 -4 30 -10 30 -5 0 -10 -11 -10 -25z"/>
<path d="M4260 471 c0 -23 -5 -31 -22 -34 l-23 -4 22 -8 c19 -6 22 -15 25 -73
3 -60 6 -68 30 -81 20 -11 35 -13 64 -6 21 6 39 15 41 21 3 8 -7 9 -37 1 -60
-17 -74 -4 -78 72 l-3 61 38 0 c21 0 45 5 53 10 11 7 0 10 -37 10 -52 0 -53 0
-53 30 0 17 -4 30 -10 30 -5 0 -10 -13 -10 -29z"/>
<path d="M5970 475 c0 -17 -8 -29 -22 -35 l-23 -9 23 -7 c20 -6 22 -13 22 -65
0 -89 37 -116 119 -88 17 6 31 15 31 21 0 6 -8 7 -17 3 -38 -15 -83 -17 -98
-5 -10 8 -15 31 -15 71 l0 59 44 0 c61 0 68 18 9 22 -44 3 -48 5 -51 31 -4 34
-22 36 -22 2z"/>
<path d="M1573 443 c-44 -9 -24 -24 22 -17 48 7 75 -5 75 -35 0 -13 -10 -16
-49 -16 -80 0 -122 -62 -69 -99 28 -20 55 -20 91 -2 15 8 27 11 27 5 0 -5 12
-9 28 -9 24 1 25 2 10 14 -14 10 -18 28 -18 70 0 84 -29 106 -117 89z m81 -89
c26 -10 18 -42 -15 -59 -37 -20 -68 -16 -83 8 -21 34 48 70 98 51z"/>
<path d="M2063 443 c-43 -8 -23 -23 22 -16 49 6 75 -7 75 -39 0 -16 -5 -18
-33 -13 -34 7 -86 -8 -99 -28 -27 -43 12 -93 64 -82 18 4 53 6 78 6 40 -1 43
1 28 13 -14 10 -18 28 -18 70 0 84 -29 106 -117 89z m81 -89 c48 -18 -24 -84
-77 -70 -20 5 -27 13 -27 30 0 34 59 57 104 40z"/>
<path d="M2318 435 c-16 -9 -28 -11 -28 -5 0 5 -12 9 -27 9 -17 -1 -21 -3 -10
-6 15 -4 17 -18 17 -114 0 -90 -3 -109 -15 -109 -8 0 -15 -4 -15 -10 0 -5 23
-10 50 -10 50 0 70 16 28 22 -19 2 -24 10 -26 46 l-3 42 34 -16 c40 -19 78
-13 107 16 25 25 27 90 3 119 -23 28 -80 36 -115 16z m83 -16 c46 -24 43 -98
-5 -120 -35 -16 -73 -3 -91 31 -33 63 32 124 96 89z"/>
<path d="M3271 424 c-58 -49 -31 -146 44 -160 37 -7 105 11 105 28 0 6 -8 7
-17 3 -47 -18 -88 -17 -115 5 -50 38 -37 50 52 50 76 0 80 1 80 23 -1 26 -17
49 -47 65 -35 19 -69 14 -102 -14z m107 -10 c43 -30 28 -44 -48 -44 -74 0 -83
7 -50 40 24 24 67 26 98 4z"/>
<path d="M3740 441 c-23 -4 -31 -9 -22 -14 15 -10 17 -137 2 -137 -5 0 -10 -4
-10 -10 0 -5 14 -10 32 -10 25 0 29 3 20 12 -18 18 -15 113 4 133 28 28 39 12
44 -66 5 -70 6 -74 30 -77 23 -2 24 -1 8 11 -26 21 -25 108 2 132 36 33 50 13
50 -70 0 -68 2 -75 20 -75 11 0 20 5 20 10 0 6 -4 10 -10 10 -6 0 -10 28 -10
64 0 85 -23 111 -72 85 -14 -8 -23 -8 -31 0 -12 12 -22 12 -77 2z"/>
<path d="M4018 435 c-58 -32 -56 -130 4 -161 96 -50 185 70 109 147 -33 32
-70 37 -113 14z m99 -27 c48 -45 13 -128 -54 -128 -32 0 -73 42 -73 75 0 34
42 75 76 75 15 0 38 -10 51 -22z"/>
<path d="M4511 436 c-13 -7 -30 -24 -37 -37 -54 -97 87 -189 156 -102 63 80
-30 188 -119 139z m94 -31 c14 -13 25 -36 25 -50 0 -33 -42 -75 -75 -75 -33 0
-75 42 -75 75 0 33 42 75 75 75 14 0 37 -11 50 -25z"/>
<path d="M4817 430 c-30 -24 -37 -25 -37 -5 0 10 -10 15 -32 14 -31 0 -32 -1
-10 -11 19 -10 22 -19 22 -75 0 -56 -2 -63 -20 -63 -11 0 -20 -4 -20 -10 0 -6
32 -10 76 -10 47 0 73 4 69 10 -3 6 -24 10 -46 10 l-39 0 0 45 c0 41 3 47 40
71 33 22 42 24 55 14 20 -17 32 -5 15 15 -17 21 -42 19 -73 -5z"/>
<path d="M5250 438 c-13 -8 -30 -25 -37 -38 -47 -93 56 -177 147 -119 19 12
29 24 23 26 -7 3 -23 -3 -35 -11 -50 -35 -128 0 -128 57 0 68 88 104 128 52
26 -32 32 -32 32 4 0 21 -5 30 -17 30 -10 1 -34 3 -53 6 -20 3 -46 0 -60 -7z"/>
<path d="M5470 422 c-77 -77 10 -199 107 -148 83 42 59 160 -34 173 -37 5 -46
2 -73 -25z m115 -17 c14 -13 25 -36 25 -50 0 -33 -42 -75 -75 -75 -33 0 -75
42 -75 75 0 33 42 75 75 75 14 0 37 -11 50 -25z"/>
<path d="M5756 443 c-4 -4 -23 -6 -44 -5 -33 2 -35 0 -19 -12 23 -18 25 -136
2 -136 -8 0 -15 -4 -15 -10 0 -5 19 -10 43 -10 38 1 40 2 24 14 -14 11 -17 25
-15 67 3 46 7 55 30 69 43 24 62 5 66 -64 2 -34 -2 -64 -9 -72 -9 -12 -5 -14
27 -14 35 1 37 2 22 14 -14 10 -18 28 -18 73 0 45 -4 64 -18 76 -19 17 -63 23
-76 10z"/>
<path d="M6283 429 c-28 -18 -33 -19 -33 -5 0 11 -9 16 -31 16 -17 0 -28 -4
-24 -10 3 -5 13 -10 21 -10 11 0 14 -15 14 -65 0 -58 -2 -65 -19 -65 -11 0
-23 -4 -26 -10 -4 -6 22 -10 69 -10 44 0 76 4 76 10 0 6 -18 10 -40 10 l-40 0
0 44 c0 40 4 48 36 72 30 23 39 26 54 16 11 -7 21 -8 25 -2 5 9 -25 30 -42 30
-4 0 -23 -10 -40 -21z"/>
<path d="M6449 421 c-73 -74 6 -191 102 -151 29 13 59 55 59 84 0 29 -24 68
-51 82 -43 22 -77 17 -110 -15z m116 -16 c32 -31 32 -69 0 -100 -30 -30 -64
-32 -99 -4 -53 41 -18 129 51 129 13 0 35 -11 48 -25z"/>
<path d="M2786 429 c3 -6 15 -9 25 -6 17 5 19 -1 19 -64 l0 -69 -29 0 c-17 0
-33 -4 -36 -10 -4 -6 25 -10 80 -10 55 0 84 4 80 10 -3 6 -22 10 -41 10 l-34
0 0 75 0 75 -36 0 c-23 0 -33 -4 -28 -11z"/>
<path d="M2991 430 c9 -5 31 -43 49 -85 42 -97 57 -98 95 -7 15 37 37 75 47
85 20 17 19 17 -23 17 -38 -1 -42 -3 -27 -13 15 -12 14 -18 -10 -75 -15 -34
-29 -62 -32 -62 -3 0 -18 28 -32 62 -26 57 -27 62 -10 74 15 12 11 13 -28 13
-33 0 -41 -2 -29 -9z"/>
</g>
</svg>
