<?xml version="1.0" standalone="no"?>
<!DOCTYPE svg PUBLIC "-//W3C//DTD SVG 20010904//EN"
 "http://www.w3.org/TR/2001/REC-SVG-20010904/DTD/svg10.dtd">
<svg version="1.0" xmlns="http://www.w3.org/2000/svg"
 width="1306.000000pt" height="1288.000000pt" viewBox="0 0 1306.000000 1288.000000"
 preserveAspectRatio="xMidYMid meet">

<g transform="translate(0.000000,1288.000000) scale(0.100000,-0.100000)"
fill="#000000" stroke="none">
<path d="M3520 12680 l-1895 -5 -93 -28 c-208 -61 -401 -155 -555 -271 -312
-235 -495 -482 -649 -876 l-53 -135 0 -4820 0 -4820 27 -125 c50 -229 131
-434 233 -588 57 -87 325 -367 439 -458 137 -110 441 -248 671 -305 77 -19
138 -20 1780 -29 935 -4 3093 -10 4795 -12 l3095 -3 85 23 c398 107 627 238
890 508 211 217 372 489 434 735 l31 124 -7 4275 c-4 2351 -11 4568 -16 4925
-8 637 -9 651 -31 715 -38 109 -135 300 -212 416 -101 152 -321 372 -473 473
-121 80 -305 172 -438 220 -183 64 44 59 -3203 63 -1628 2 -3813 1 -4855 -2z
m3915 -1209 c39 -5 135 -12 215 -15 137 -5 220 -12 470 -36 58 -6 150 -15 205
-20 345 -33 601 -60 737 -79 138 -19 487 -79 583 -101 22 -5 65 -14 95 -20 30
-7 71 -16 90 -21 19 -4 100 -25 180 -44 80 -20 177 -44 215 -54 70 -18 362
-113 400 -130 11 -5 52 -21 90 -36 148 -56 266 -114 462 -226 149 -85 345
-263 425 -385 52 -79 97 -173 113 -234 34 -128 34 -170 34 -1965 0 -1827 1
-1794 -36 -1905 -45 -136 -189 -261 -357 -311 -43 -13 -2539 -13 -2602 0 -143
28 -259 103 -338 215 -48 69 -97 167 -216 436 -42 96 -74 167 -100 225 -10 22
-25 56 -33 75 -23 54 -56 129 -88 198 -16 35 -29 66 -29 68 0 3 -13 33 -29 67
-16 34 -39 86 -52 115 -12 28 -26 52 -30 52 -8 0 -26 -56 -54 -170 -3 -14 -15
-58 -26 -97 -30 -114 -55 -208 -89 -338 -17 -66 -39 -149 -49 -185 -11 -36
-21 -76 -24 -90 -3 -14 -15 -60 -26 -102 -54 -203 -63 -235 -71 -268 -5 -19
-17 -69 -28 -110 -58 -213 -96 -360 -133 -500 -22 -85 -50 -189 -61 -230 -11
-41 -23 -91 -28 -110 -8 -34 -33 -127 -65 -245 -49 -183 -115 -431 -125 -475
-5 -19 -18 -71 -30 -115 -12 -44 -25 -96 -30 -115 -4 -19 -22 -87 -39 -150
-17 -63 -47 -176 -67 -250 -20 -74 -45 -169 -56 -210 -11 -41 -23 -91 -28
-110 -5 -19 -18 -71 -30 -115 -12 -44 -25 -96 -30 -115 -4 -19 -22 -87 -39
-150 -17 -63 -47 -173 -66 -245 -47 -179 -46 -176 -59 -172 -6 2 -16 19 -23
38 -6 19 -32 93 -58 164 -25 72 -57 164 -71 205 -13 41 -29 83 -34 92 -6 10
-10 25 -10 33 0 8 -4 23 -10 33 -5 9 -21 51 -34 92 -14 41 -43 127 -66 190
-22 63 -50 142 -61 175 -11 33 -24 68 -29 77 -6 10 -10 26 -10 36 0 10 -4 22
-8 28 -5 5 -15 29 -22 54 -8 25 -17 50 -20 55 -4 6 -10 21 -13 35 -3 14 -26
84 -52 155 -26 72 -71 202 -101 290 -31 88 -59 169 -64 180 -5 11 -20 54 -34
95 -14 41 -35 102 -47 135 -61 172 -114 321 -145 415 -19 58 -39 113 -44 122
-6 10 -10 25 -10 33 0 8 -4 23 -10 33 -5 9 -16 37 -24 62 -8 25 -33 97 -56
160 -22 63 -50 142 -61 175 -11 33 -24 68 -29 77 -6 10 -10 25 -10 33 0 8 -4
23 -10 33 -5 9 -23 60 -40 112 -17 52 -35 104 -40 115 -5 11 -17 43 -26 72
-30 97 -32 96 -102 -39 -116 -224 -150 -278 -210 -336 -75 -71 -122 -100 -246
-151 -42 -17 -1199 -18 -1241 -1 -162 67 -274 185 -324 341 -16 52 -14 205 5
259 59 171 161 271 344 340 26 9 137 14 416 17 210 3 386 8 392 12 6 4 51 85
100 181 49 96 144 283 212 415 67 132 183 359 258 505 168 330 359 704 446
875 37 72 71 134 76 139 9 9 40 -51 65 -130 9 -27 20 -58 25 -69 5 -11 23 -63
40 -115 17 -52 35 -104 40 -115 5 -11 20 -54 34 -95 13 -41 41 -120 61 -175
20 -55 39 -109 42 -120 2 -11 8 -29 13 -40 14 -32 61 -168 67 -190 2 -11 9
-29 13 -40 10 -22 64 -178 147 -420 30 -88 58 -169 63 -180 5 -11 20 -54 34
-95 14 -41 35 -102 47 -135 36 -101 128 -366 155 -445 14 -41 29 -84 34 -95 5
-11 31 -85 58 -165 63 -184 70 -200 80 -200 5 0 12 15 15 33 6 30 25 102 77
292 12 44 26 97 31 118 19 81 28 115 49 192 12 44 25 96 30 115 4 19 15 60 23
90 15 53 25 89 82 305 57 213 77 291 85 325 5 19 18 71 30 115 12 44 25 96 30
115 8 34 38 148 95 355 15 55 31 116 35 135 5 19 18 71 30 115 12 44 25 96 30
115 5 19 17 69 28 110 11 41 39 145 61 230 23 85 53 198 67 250 14 52 30 111
34 130 5 19 18 70 29 113 12 42 30 112 42 155 11 42 24 93 29 112 4 19 22 87
39 150 83 311 103 388 111 420 13 58 41 154 45 158 2 2 8 1 13 -2 8 -5 172
-330 202 -401 5 -11 27 -60 50 -108 22 -49 40 -90 40 -92 0 -2 13 -32 29 -67
16 -35 38 -84 50 -110 48 -108 64 -146 88 -198 14 -30 45 -100 70 -155 24 -55
50 -113 58 -130 30 -67 58 -132 70 -160 7 -16 23 -52 35 -80 13 -27 37 -84 55
-125 18 -41 45 -102 60 -135 15 -33 34 -76 42 -95 15 -34 29 -66 74 -167 12
-27 25 -57 30 -68 4 -11 28 -64 53 -119 26 -54 46 -100 46 -102 0 -2 11 -27
24 -56 31 -68 75 -168 121 -273 8 -16 34 -74 59 -129 25 -54 46 -100 46 -102
0 -2 11 -27 24 -56 13 -29 34 -75 46 -103 12 -27 32 -72 45 -100 12 -27 30
-70 41 -94 10 -25 33 -71 49 -103 l30 -59 804 0 c640 0 806 3 813 13 4 7 8
658 8 1446 0 1294 -1 1437 -16 1467 -21 45 -91 89 -274 173 -63 29 -328 124
-400 144 -33 9 -68 18 -135 38 -16 5 -59 16 -95 25 -36 9 -81 20 -100 25 -19
5 -56 14 -82 19 -27 6 -67 15 -90 21 -112 24 -640 113 -893 149 -243 35 -253
36 -655 66 -41 3 -93 8 -115 12 -100 14 -372 23 -1050 34 -562 9 -804 9 -1050
-1 -382 -14 -432 -17 -555 -30 -52 -5 -120 -12 -150 -15 -30 -3 -95 -10 -145
-14 -49 -5 -108 -12 -130 -15 -22 -3 -85 -10 -140 -16 -55 -6 -134 -15 -175
-20 -41 -5 -115 -14 -165 -20 -248 -30 -567 -81 -695 -111 -25 -6 -63 -14 -85
-19 -82 -18 -301 -72 -325 -80 -14 -4 -43 -13 -65 -19 -68 -18 -245 -77 -350
-116 -55 -20 -120 -43 -145 -52 -78 -27 -241 -115 -275 -149 -32 -32 -33 -36
-40 -139 -12 -179 1 -3400 14 -3475 7 -36 16 -94 22 -130 10 -63 17 -99 40
-197 15 -65 66 -218 91 -273 11 -25 29 -65 40 -90 65 -146 171 -321 281 -461
59 -75 2216 -2230 2322 -2319 28 -23 62 -52 76 -65 76 -66 290 -201 399 -252
253 -117 474 -174 797 -204 148 -13 378 4 548 41 387 85 684 235 988 501 50
45 551 539 1112 1098 751 749 1037 1028 1085 1059 118 75 236 103 345 83 183
-34 350 -181 398 -350 6 -20 12 -78 14 -128 5 -109 -16 -185 -75 -268 -42 -59
-2112 -2122 -2257 -2250 -100 -87 -234 -191 -287 -223 -15 -9 -28 -20 -28 -24
0 -4 -4 -8 -9 -8 -6 0 -51 -27 -102 -59 -192 -125 -496 -260 -739 -329 -160
-45 -255 -67 -360 -82 -41 -6 -106 -16 -145 -23 -97 -17 -643 -16 -755 1 -176
27 -218 35 -375 73 -435 105 -881 334 -1230 633 -110 94 -2250 2211 -2376
2351 -30 33 -83 96 -118 140 -34 44 -68 87 -76 96 -90 112 -263 415 -354 620
-34 78 -101 253 -101 267 0 7 -4 20 -9 30 -10 21 -25 71 -60 207 -38 149 -60
293 -81 510 -14 152 -14 3694 0 3767 16 81 31 141 41 166 34 85 36 87 70 149
97 173 342 378 614 515 107 54 187 92 233 109 12 5 34 14 50 20 31 13 49 20
112 44 48 18 325 109 375 124 55 15 120 33 155 41 19 5 54 13 78 19 90 23 119
30 177 41 33 6 78 16 100 20 138 30 600 111 735 130 47 6 99 13 115 16 71 12
264 33 505 54 58 5 157 14 220 20 188 18 349 31 445 36 50 2 101 7 115 10 87
21 1751 25 1895 5z"/>
</g>
</svg>
